<svg width="15" height="16" viewBox="0 0 15 16" fill="none" xmlns="http://www.w3.org/2000/svg">
<path d="M15 14.4331L11.518 10.936C12.5301 9.77549 13.1482 8.26028 13.1482 6.59705C13.1482 2.95347 10.205 0 6.57396 0C2.94296 0 0 2.95316 0 6.59705C0 10.241 2.94327 13.1941 6.57427 13.1941C8.23206 13.1941 9.74204 12.5738 10.8983 11.5582L14.3803 15.0555L15 14.4331ZM0.876672 6.59705C0.876672 3.43941 3.42753 0.879711 6.57427 0.879711C9.72101 0.879711 12.2719 3.43941 12.2719 6.59705C12.2719 9.7547 9.72101 12.3144 6.57427 12.3144C3.42753 12.3144 0.876672 9.7547 0.876672 6.59705Z" fill="#8F8F8F"/>
</svg>
